<svg width="44" height="44" viewBox="0 0 44 44" fill="none" xmlns="http://www.w3.org/2000/svg">
  <circle cx="22" cy="22" r="22" fill="#A259FF" fill-opacity="0.13"/>
  <circle cx="22" cy="22" r="16" stroke="#A259FF" stroke-width="2.5" fill="none"/>
  <g filter="url(#brainGlow)">
    <path d="M22 13 Q16 13, 15 19 Q12 26, 18 29 Q15 34, 22 34 Q29 34, 26 29 Q32 26, 29 19 Q28 13, 22 13" fill="none" stroke="#A259FF" stroke-width="2"/>
    <path d="M20 19 Q18 21, 21 23" stroke="#A259FF" stroke-width="1" fill="none"/>
    <path d="M24 19 Q26 21, 23 23" stroke="#A259FF" stroke-width="1" fill="none"/>
    <path d="M21 27 Q19 29, 22 31" stroke="#A259FF" stroke-width="1" fill="none"/>
    <path d="M23 27 Q25 29, 22 31" stroke="#A259FF" stroke-width="1" fill="none"/>
  </g>
  <defs>
    <filter id="brainGlow" x="10" y="10" width="24" height="24" filterUnits="userSpaceOnUse">
      <feGaussianBlur stdDeviation="1.2" result="brainBlur"/>
      <feMerge>
        <feMergeNode in="brainBlur"/>
        <feMergeNode in="SourceGraphic"/>
      </feMerge>
    </filter>
  </defs>
</svg>
