<svg width="80" height="80" viewBox="0 0 80 80" fill="none" xmlns="http://www.w3.org/2000/svg">
  <!-- Outer glowing circle -->
  <circle cx="40" cy="40" r="30" stroke="#A259FF" stroke-width="6" fill="none" filter="url(#circleGlow)" />
  <!-- Brain shape (centered) -->
  <g filter="url(#brainGlow)">
    <path
      d="M40 30
         Q34 30, 34 37
         Q30 44, 37 47
         Q34 54, 40 54
         Q46 54, 43 47
         Q50 44, 46 37
         Q46 30, 40 30"
      fill="none"
      stroke="#fff"
      stroke-width="2.5"
      stroke-linecap="round"
      stroke-linejoin="round"
    />
    <!-- Brain folds -->
    <path d="M38 37 Q36 39, 39 41" stroke="#fff" stroke-width="1.3" fill="none"/>
    <path d="M42 37 Q44 39, 41 41" stroke="#fff" stroke-width="1.3" fill="none"/>
    <path d="M39 45 Q37 47, 40 49" stroke="#fff" stroke-width="1.3" fill="none"/>
    <path d="M41 45 Q43 47, 40 49" stroke="#fff" stroke-width="1.3" fill="none"/>
  </g>
  <defs>
    <filter id="circleGlow" x="0" y="0" width="80" height="80" filterUnits="userSpaceOnUse">
      <feGaussianBlur stdDeviation="4" result="coloredBlur"/>
      <feMerge>
        <feMergeNode in="coloredBlur"/>
        <feMergeNode in="SourceGraphic"/>
      </feMerge>
    </filter>
    <filter id="brainGlow" x="24" y="24" width="32" height="40" filterUnits="userSpaceOnUse">
      <feGaussianBlur stdDeviation="2.2" result="brainBlur"/>
      <feMerge>
        <feMergeNode in="brainBlur"/>
        <feMergeNode in="SourceGraphic"/>
      </feMerge>
    </filter>
  </defs>
</svg>
